<?xml version="1.0" encoding="UTF-8"?>
<svg xmlns="http://www.w3.org/2000/svg" xmlns:xlink="http://www.w3.org/1999/xlink" width="2000" height="2000" viewBox="0 0 2000 2000">

<path fill-rule="nonzero" fill="rgb(0%, 0%, 0%)" fill-opacity="1" d="M 1199 1844.933594 C 1197.101562 1861.714844 1185.410156 1871.304688 1170.398438 1876.808594 C 1169.558594 1877.109375 1169.738281 1878.332031 1170.640625 1878.386719 C 1173.308594 1878.523438 1177.261719 1877.296875 1179.390625 1877.296875 C 1203.199219 1877.078125 1227.058594 1877.460938 1250.960938 1878.441406 C 1252.179688 1878.496094 1252.269531 1878.167969 1251.261719 1877.488281 C 1235.640625 1867.082031 1227.609375 1859.097656 1220.039062 1841.609375 C 1212.320312 1823.765625 1205 1805.675781 1196.578125 1788.375 C 1180.691406 1755.710938 1164.839844 1723.019531 1148.980469 1690.328125 C 1148.609375 1689.566406 1147.480469 1689.648438 1147.210938 1690.4375 C 1135.5 1723.046875 1113.410156 1759.988281 1083.769531 1779.46875 C 1082.921875 1780.011719 1083.359375 1781.347656 1084.359375 1781.292969 C 1103.628906 1780.503906 1122.859375 1781.566406 1142.039062 1784.480469 C 1172.578125 1789.113281 1202.839844 1811.453125 1199 1844.933594 M 610.253906 1876.96875 C 602.652344 1872.9375 596.085938 1867.625 590.558594 1861.0625 C 589.957031 1860.351562 589.195312 1859.996094 588.292969 1859.972656 C 380.921875 1853.269531 221.359375 1740.484375 205.421875 1523.054688 C 196.1875 1397.03125 227.105469 1261.824219 301.589844 1158.191406 C 316.054688 1138.082031 332.398438 1122.609375 350.652344 1111.742188 C 389.230469 1088.773438 425.761719 1117.871094 413.257812 1160.070312 C 409.90625 1171.402344 405.492188 1182.355469 400.019531 1192.898438 C 344.167969 1300.425781 316.21875 1433.753906 341.988281 1553.105469 C 363.074219 1650.855469 421.402344 1714.902344 523.675781 1732.285156 C 524.871094 1732.472656 525.308594 1732.011719 524.980469 1730.839844 C 513.566406 1689.972656 505.640625 1648.183594 501.226562 1605.496094 C 480.085938 1400.625 514.765625 1185.921875 635.5625 1015.925781 C 699.472656 925.941406 784.144531 860.910156 871.539062 795.558594 C 911.207031 765.921875 951.0625 727.609375 953.324219 675.140625 C 953.925781 660.730469 954.304688 639.160156 954.46875 610.410156 C 954.496094 605.699219 955.804688 598.671875 958.335938 589.300781 C 968.664062 551.429688 990.566406 518.308594 992.117188 477.738281 C 992.664062 463.550781 989.066406 448.621094 986.34375 434.148438 C 983.617188 419.550781 984.683594 402.980469 989.558594 384.429688 C 993.699219 368.660156 1002.578125 344.140625 1016.199219 310.929688 C 1032.679688 270.769531 1050.089844 231.03125 1068.480469 191.691406 C 1081.5 163.871094 1089.789062 141.421875 1095.691406 114.148438 C 1095.859375 113.339844 1096.949219 113.140625 1097.410156 113.828125 C 1105.96875 126.390625 1113.890625 139.429688 1121.21875 152.96875 C 1140.871094 189.339844 1159.121094 226.371094 1175.980469 263.988281 C 1176.148438 264.371094 1176.691406 264.449219 1176.960938 264.101562 L 1261.988281 156.898438 C 1262.691406 156 1264.109375 156.378906 1264.328125 157.5 L 1290.980469 298.070312 C 1291.25 299.429688 1292.339844 300.519531 1293.699219 300.738281 C 1331.378906 306.949219 1362.300781 324.820312 1386.460938 354.359375 C 1390.089844 358.800781 1395.941406 362.148438 1404.039062 364.378906 C 1411.230469 366.371094 1417.078125 370.890625 1410.359375 378.078125 C 1409.761719 378.710938 1409.460938 379.578125 1409.539062 380.449219 C 1410.648438 393.5 1411.988281 408.410156 1420.628906 418.539062 C 1426.921875 425.949219 1434.570312 431.621094 1443.570312 435.570312 C 1451.359375 438.941406 1460.671875 438.621094 1469.421875 439.761719 C 1489.328125 442.320312 1470.429688 473.25 1463.78125 480.359375 C 1463.179688 481.011719 1462.800781 481.769531 1462.609375 482.671875 C 1458.410156 503.101562 1457.429688 517.648438 1443.320312 534.429688 C 1419.730469 562.488281 1389.320312 571.480469 1353.820312 581.179688 C 1341.699219 584.480469 1331.429688 590.820312 1323.039062 600.21875 C 1290.398438 636.761719 1331.761719 687.070312 1351.128906 717.941406 C 1363.46875 737.578125 1369.949219 757.660156 1370.640625 778.179688 C 1371.289062 797.980469 1362.929688 819.070312 1363.039062 839.988281 C 1363.109375 853.480469 1365.289062 865.730469 1369.628906 876.800781 C 1395.210938 942.148438 1392.808594 1006.800781 1362.488281 1070.738281 C 1349.980469 1097.136719 1339.140625 1118.496094 1329.988281 1134.871094 C 1301.03125 1186.660156 1284.191406 1242.96875 1279.480469 1303.75 C 1276.699219 1339.765625 1275.148438 1370.222656 1276.320312 1407.328125 C 1278.769531 1483.582031 1280.628906 1559.832031 1281.851562 1636.117188 C 1282.53125 1677.25 1285.28125 1718.144531 1298.980469 1757.753906 C 1303.019531 1769.441406 1309.75 1778.621094 1319.171875 1785.296875 C 1319.960938 1785.871094 1320.859375 1786.140625 1321.820312 1786.140625 C 1345.109375 1786.46875 1363.328125 1794.640625 1376.550781 1810.632812 C 1385.941406 1822.046875 1390.410156 1833.679688 1389.890625 1845.503906 C 1389.238281 1860.515625 1379.761719 1871.332031 1361.429688 1877.980469 C 1361.261719 1878.035156 1361.289062 1878.304688 1361.480469 1878.304688 L 1502.328125 1883.644531 C 1503.5 1883.671875 1503.53125 1883.945312 1502.460938 1884.410156 C 1501.160156 1884.980469 1499.960938 1885.253906 1498.890625 1885.226562 C 1439.179688 1885.007812 1379.488281 1886.640625 1319.769531 1886.585938 C 1081.390625 1886.398438 843.019531 1886.371094 604.640625 1886.5625 C 539.992188 1886.585938 475.316406 1885.117188 410.695312 1884.734375 C 410.589844 1884.734375 410.480469 1884.652344 410.480469 1884.542969 C 410.453125 1884.410156 410.535156 1884.328125 410.644531 1884.296875 C 414.292969 1883.617188 418 1883.210938 421.757812 1883.074219 C 482.046875 1880.921875 542.308594 1879.121094 602.597656 1877.652344 C 605.023438 1877.597656 607.476562 1877.707031 609.953125 1878.003906 C 611.886719 1878.25 611.96875 1877.898438 610.253906 1876.96875 "/>
</svg>
